<?xml version="1.0" encoding="UTF-8" standalone="no"?>
<!DOCTYPE svg PUBLIC "-//W3C//DTD SVG 1.1//EN" "http://www.w3.org/Graphics/SVG/1.1/DTD/svg11.dtd">
<svg width="100%" height="100%" viewBox="0 0 439 90" version="1.1" xmlns="http://www.w3.org/2000/svg" xmlns:xlink="http://www.w3.org/1999/xlink" xml:space="preserve" xmlns:serif="http://www.serif.com/" style="fill-rule:evenodd;clip-rule:evenodd;stroke-linejoin:round;stroke-miterlimit:2;">
    <g transform="matrix(3.9466,0,0,4.23729,-440.898,-1082.64)">
        <g id="Calque-1" serif:id="Calque 1">
            <g id="g3774">
                <clipPath id="_clip1">
                    <path d="M118.959,255.784L120.173,255.784L120.173,264.821L118.959,264.821L118.959,255.784ZM219.836,255.504L222.746,255.504L222.746,276.294L219.836,276.294L219.836,255.504ZM199.241,273.414C199.041,272.934 198.771,272.324 198.431,271.584C198.111,270.844 197.761,270.044 197.381,269.184C197.001,268.324 196.591,267.444 196.151,266.544C195.731,265.624 195.331,264.764 194.951,263.964C194.571,263.144 194.211,262.414 193.871,261.774C193.551,261.134 193.291,260.644 193.091,260.304C192.871,262.664 192.691,265.224 192.551,267.984C192.411,270.724 192.291,273.494 192.191,276.294L189.341,276.294C189.421,274.494 189.511,272.684 189.611,270.864C189.711,269.024 189.821,267.224 189.941,265.464C190.081,263.684 190.221,261.954 190.361,260.274C190.521,258.594 190.691,257.004 190.871,255.504L193.421,255.504C193.961,256.384 194.541,257.424 195.161,258.624C195.781,259.824 196.401,261.084 197.021,262.404C197.641,263.704 198.241,265.014 198.821,266.334C199.401,267.634 199.931,268.824 200.411,269.904C200.891,268.824 201.421,267.634 202.001,266.334C202.581,265.014 203.181,263.704 203.801,262.404C204.421,261.084 205.041,259.824 205.661,258.624C206.281,257.424 206.861,256.384 207.401,255.504L209.951,255.504C210.631,262.204 211.141,269.134 211.481,276.294L208.631,276.294C208.531,273.494 208.411,270.724 208.271,267.984C208.131,265.224 207.951,262.664 207.731,260.304C207.531,260.644 207.261,261.134 206.921,261.774C206.601,262.414 206.251,263.144 205.871,263.964C205.491,264.764 205.081,265.624 204.641,266.544C204.221,267.444 203.821,268.324 203.441,269.184C203.061,270.044 202.701,270.844 202.361,271.584C202.041,272.324 201.781,272.934 201.581,273.414L199.241,273.414ZM180.116,276.294C179.776,275.394 179.456,274.514 179.156,273.654C178.856,272.774 178.546,271.884 178.226,270.984L168.806,270.984L166.916,276.294L163.886,276.294C164.686,274.094 165.436,272.064 166.136,270.204C166.836,268.324 167.516,266.544 168.176,264.864C168.856,263.184 169.526,261.584 170.186,260.064C170.846,258.524 171.536,257.004 172.256,255.504L174.926,255.504C175.646,257.004 176.336,258.524 176.996,260.064C177.656,261.584 178.316,263.184 178.976,264.864C179.656,266.544 180.346,268.324 181.046,270.204C181.746,272.064 182.496,274.094 183.296,276.294L180.116,276.294ZM177.386,268.584C176.746,266.844 176.106,265.164 175.466,263.544C174.846,261.904 174.196,260.334 173.516,258.834C172.816,260.334 172.146,261.904 171.506,263.544C170.886,265.164 170.266,266.844 169.646,268.584L177.386,268.584ZM145.631,273.414C145.431,272.934 145.161,272.324 144.821,271.584C144.501,270.844 144.151,270.044 143.771,269.184C143.391,268.324 142.981,267.444 142.541,266.544C142.121,265.624 141.721,264.764 141.341,263.964C140.961,263.144 140.601,262.414 140.261,261.774C139.941,261.134 139.681,260.644 139.481,260.304C139.261,262.664 139.081,265.224 138.941,267.984C138.801,270.724 138.681,273.494 138.581,276.294L135.731,276.294C135.811,274.494 135.901,272.684 136.001,270.864C136.101,269.024 136.211,267.224 136.331,265.464C136.471,263.684 136.611,261.954 136.751,260.274C136.911,258.594 137.081,257.004 137.261,255.504L139.811,255.504C140.351,256.384 140.931,257.424 141.551,258.624C142.171,259.824 142.791,261.084 143.411,262.404C144.031,263.704 144.631,265.014 145.211,266.334C145.791,267.634 146.321,268.824 146.801,269.904C147.281,268.824 147.811,267.634 148.391,266.334C148.971,265.014 149.571,263.704 150.191,262.404C150.811,261.084 151.431,259.824 152.051,258.624C152.671,257.424 153.251,256.384 153.791,255.504L156.341,255.504C157.021,262.204 157.531,269.134 157.871,276.294L155.021,276.294C154.921,273.494 154.801,270.724 154.661,267.984C154.521,265.224 154.341,262.664 154.121,260.304C153.921,260.644 153.651,261.134 153.311,261.774C152.991,262.414 152.641,263.144 152.261,263.964C151.881,264.764 151.471,265.624 151.031,266.544C150.611,267.444 150.211,268.324 149.831,269.184C149.451,270.044 149.091,270.844 148.751,271.584C148.431,272.324 148.171,272.934 147.971,273.414L145.631,273.414ZM119.606,276.744C118.246,276.744 117.066,276.534 116.066,276.114C115.066,275.694 114.246,275.124 113.606,274.404C112.966,273.664 112.486,272.794 112.166,271.794C111.866,270.794 111.716,269.714 111.716,268.554L111.716,255.504L114.626,255.504L114.626,268.224C114.626,270.304 115.086,271.814 116.006,272.754C116.926,273.694 118.126,274.164 119.606,274.164C120.346,274.164 121.016,274.054 121.616,273.834C122.236,273.594 122.766,273.234 123.206,272.754C123.646,272.274 123.986,271.664 124.226,270.924C124.466,270.164 124.586,269.264 124.586,268.224L124.586,255.504L127.496,255.504L127.496,268.554C127.496,269.714 127.336,270.794 127.016,271.794C126.716,272.794 126.236,273.664 125.576,274.404C124.936,275.124 124.116,275.694 123.116,276.114C122.136,276.534 120.966,276.744 119.606,276.744Z"/>
                </clipPath>
                <g clip-path="url(#_clip1)">
                    <g id="Clip">
                        <path id="rect3741" d="M118.959,255.784L120.173,255.784L120.173,264.821L118.959,264.821L118.959,255.784ZM219.836,255.504L222.746,255.504L222.746,276.294L219.836,276.294L219.836,255.504ZM199.241,273.414C199.041,272.934 198.771,272.324 198.431,271.584C198.111,270.844 197.761,270.044 197.381,269.184C197.001,268.324 196.591,267.444 196.151,266.544C195.731,265.624 195.331,264.764 194.951,263.964C194.571,263.144 194.211,262.414 193.871,261.774C193.551,261.134 193.291,260.644 193.091,260.304C192.871,262.664 192.691,265.224 192.551,267.984C192.411,270.724 192.291,273.494 192.191,276.294L189.341,276.294C189.421,274.494 189.511,272.684 189.611,270.864C189.711,269.024 189.821,267.224 189.941,265.464C190.081,263.684 190.221,261.954 190.361,260.274C190.521,258.594 190.691,257.004 190.871,255.504L193.421,255.504C193.961,256.384 194.541,257.424 195.161,258.624C195.781,259.824 196.401,261.084 197.021,262.404C197.641,263.704 198.241,265.014 198.821,266.334C199.401,267.634 199.931,268.824 200.411,269.904C200.891,268.824 201.421,267.634 202.001,266.334C202.581,265.014 203.181,263.704 203.801,262.404C204.421,261.084 205.041,259.824 205.661,258.624C206.281,257.424 206.861,256.384 207.401,255.504L209.951,255.504C210.631,262.204 211.141,269.134 211.481,276.294L208.631,276.294C208.531,273.494 208.411,270.724 208.271,267.984C208.131,265.224 207.951,262.664 207.731,260.304C207.531,260.644 207.261,261.134 206.921,261.774C206.601,262.414 206.251,263.144 205.871,263.964C205.491,264.764 205.081,265.624 204.641,266.544C204.221,267.444 203.821,268.324 203.441,269.184C203.061,270.044 202.701,270.844 202.361,271.584C202.041,272.324 201.781,272.934 201.581,273.414L199.241,273.414ZM180.116,276.294C179.776,275.394 179.456,274.514 179.156,273.654C178.856,272.774 178.546,271.884 178.226,270.984L168.806,270.984L166.916,276.294L163.886,276.294C164.686,274.094 165.436,272.064 166.136,270.204C166.836,268.324 167.516,266.544 168.176,264.864C168.856,263.184 169.526,261.584 170.186,260.064C170.846,258.524 171.536,257.004 172.256,255.504L174.926,255.504C175.646,257.004 176.336,258.524 176.996,260.064C177.656,261.584 178.316,263.184 178.976,264.864C179.656,266.544 180.346,268.324 181.046,270.204C181.746,272.064 182.496,274.094 183.296,276.294L180.116,276.294ZM177.386,268.584C176.746,266.844 176.106,265.164 175.466,263.544C174.846,261.904 174.196,260.334 173.516,258.834C172.816,260.334 172.146,261.904 171.506,263.544C170.886,265.164 170.266,266.844 169.646,268.584L177.386,268.584ZM145.631,273.414C145.431,272.934 145.161,272.324 144.821,271.584C144.501,270.844 144.151,270.044 143.771,269.184C143.391,268.324 142.981,267.444 142.541,266.544C142.121,265.624 141.721,264.764 141.341,263.964C140.961,263.144 140.601,262.414 140.261,261.774C139.941,261.134 139.681,260.644 139.481,260.304C139.261,262.664 139.081,265.224 138.941,267.984C138.801,270.724 138.681,273.494 138.581,276.294L135.731,276.294C135.811,274.494 135.901,272.684 136.001,270.864C136.101,269.024 136.211,267.224 136.331,265.464C136.471,263.684 136.611,261.954 136.751,260.274C136.911,258.594 137.081,257.004 137.261,255.504L139.811,255.504C140.351,256.384 140.931,257.424 141.551,258.624C142.171,259.824 142.791,261.084 143.411,262.404C144.031,263.704 144.631,265.014 145.211,266.334C145.791,267.634 146.321,268.824 146.801,269.904C147.281,268.824 147.811,267.634 148.391,266.334C148.971,265.014 149.571,263.704 150.191,262.404C150.811,261.084 151.431,259.824 152.051,258.624C152.671,257.424 153.251,256.384 153.791,255.504L156.341,255.504C157.021,262.204 157.531,269.134 157.871,276.294L155.021,276.294C154.921,273.494 154.801,270.724 154.661,267.984C154.521,265.224 154.341,262.664 154.121,260.304C153.921,260.644 153.651,261.134 153.311,261.774C152.991,262.414 152.641,263.144 152.261,263.964C151.881,264.764 151.471,265.624 151.031,266.544C150.611,267.444 150.211,268.324 149.831,269.184C149.451,270.044 149.091,270.844 148.751,271.584C148.431,272.324 148.171,272.934 147.971,273.414L145.631,273.414ZM119.606,276.744C118.246,276.744 117.066,276.534 116.066,276.114C115.066,275.694 114.246,275.124 113.606,274.404C112.966,273.664 112.486,272.794 112.166,271.794C111.866,270.794 111.716,269.714 111.716,268.554L111.716,255.504L114.626,255.504L114.626,268.224C114.626,270.304 115.086,271.814 116.006,272.754C116.926,273.694 118.126,274.164 119.606,274.164C120.346,274.164 121.016,274.054 121.616,273.834C122.236,273.594 122.766,273.234 123.206,272.754C123.646,272.274 123.986,271.664 124.226,270.924C124.466,270.164 124.586,269.264 124.586,268.224L124.586,255.504L127.496,255.504L127.496,268.554C127.496,269.714 127.336,270.794 127.016,271.794C126.716,272.794 126.236,273.664 125.576,274.404C124.936,275.124 124.116,275.694 123.116,276.114C122.136,276.534 120.966,276.744 119.606,276.744Z" style="fill:rgb(217,87,65);fill-rule:nonzero;"/>
                        <g id="path3855" transform="matrix(0.0670409,0,0,0.0624417,111.716,255.504)">
                            <path d="M359.232,325.404C359.53,321.379 360.841,294.515 362.146,265.706C365.917,182.447 372.131,92.752 378.256,33.169C379.956,16.637 381.346,2.379 381.346,1.487C381.346,0.414 387.75,0.01 400.218,0.296L419.09,0.729L437.652,37.702C458.377,78.985 473.784,113.347 502.397,182.101C513.07,207.748 522.282,229.237 522.867,229.852C523.452,230.468 532.19,211.057 542.286,186.716C573.177,112.235 601.791,48.997 618.948,17.29L628.327,-0.042L664.54,-0.042L665.436,5.736C668.269,24.007 679.054,169.914 683.227,246.449C684.914,277.376 686.715,309.439 687.23,317.701L688.166,332.721L646.751,332.721L645.715,306.146C643.549,250.557 640.013,173.913 638.591,151.704C635.31,100.49 633.376,76.987 632.44,76.987C629.307,76.987 570.826,208.793 544.948,274.18L540.375,285.734L506.593,286.601L489.935,246.113C459.202,171.414 416.22,75.492 414.328,77.384C412.241,79.471 407.115,159.269 403.715,242.598C402.401,274.796 400.923,308.245 400.431,316.93L399.537,332.721L358.69,332.721L359.232,325.404Z" style="fill:rgb(0,0,0);fill-rule:nonzero;"/>
                        </g>
                        <g id="path3857" transform="matrix(0.0670409,0,0,0.0624417,111.716,255.504)">
                            <path d="M793.33,290.741C836.847,164.014 864.82,89.621 895.719,18.445L903.41,0.729L942.533,0.729L950.863,19.986C980.136,87.66 1018.78,190.964 1056.18,301.525L1066.73,332.721L1021.03,332.721L1014.03,312.309C1010.19,301.082 1003.7,281.844 999.611,269.558L992.182,247.22L922.672,246.819C868.224,246.505 852.829,246.839 851.621,248.36C850.773,249.427 843.933,268.845 836.421,291.511L822.763,332.721L778.914,332.721L793.33,290.741ZM972.93,188.293C947.754,116.491 923.987,53.878 921.906,53.878C920.538,53.878 908.846,81.558 897.927,110.646C889.925,131.964 863.544,207.251 863.544,208.77C863.544,209.158 889.827,209.476 921.951,209.476L980.357,209.476L972.93,188.293Z" style="fill:rgb(0,0,0);fill-rule:nonzero;"/>
                        </g>
                        <g id="path3859" transform="matrix(0.0670409,0,0,0.0624417,111.716,255.504)">
                            <path d="M1159.34,322.322C1159.36,280.618 1171.11,97.718 1177.88,33.851C1179.54,18.176 1180.89,4.116 1180.9,2.607C1180.9,0.102 1182.54,-0.099 1199.77,0.296L1218.64,0.729L1237.23,37.702C1257.46,77.968 1277.43,122.532 1304.19,187.138C1313.67,210.015 1321.9,229.252 1322.49,229.885C1323.07,230.519 1331.1,212.841 1340.33,190.601C1372.74,112.469 1398.33,55.821 1418.29,18.023L1427.83,-0.042L1464.18,-0.042L1465.04,6.506C1468.87,35.578 1479.05,173.318 1483.56,257.233C1484.82,280.534 1486.27,307.051 1486.79,316.16L1487.73,332.721L1446.29,332.721L1445.24,303.836C1443.52,256.528 1439.76,174.921 1438.17,150.164C1434.99,100.796 1432.98,76.987 1432,76.987C1428.72,76.987 1374.2,200.429 1343.2,278.031L1340.13,285.734L1306.19,286.6L1287.57,241.491C1264.44,185.452 1238.54,126.133 1224.82,97.785C1214.54,76.531 1214.37,76.295 1213.19,81.609C1210.88,92.022 1205.33,186.131 1202.47,263.396C1201.58,287.544 1200.46,313.021 1199.98,320.012L1199.11,332.721L1159.33,332.721L1159.34,322.322L1159.34,322.322Z" style=" fill:rgb(0,0,0);fill-rule:nonzero;"/>
                        </g>
                        <g id="path3861" transform="matrix(0.0670409,0,0,0.0624417,111.716,255.504)">
                            <path d="M1613.8,332.721L1613.8,-0.042L1655.4,-0.042L1655.4,332.721L1613.8,332.721Z" style="fill:rgb(0,0,0);fill-rule:nonzero;"/>
                        </g>
                    </g>
                </g>
            </g>
        </g>
    </g>
</svg>
